<?xml version="1.0" encoding="UTF-8"?>
<!DOCTYPE svg PUBLIC "-//W3C//DTD SVG 1.1//EN" "http://www.w3.org/Graphics/SVG/1.1/DTD/svg11.dtd">
<!-- Creator: CorelDRAW -->
<svg xmlns="http://www.w3.org/2000/svg" xml:space="preserve" width="215.9mm" height="279.4mm" style="shape-rendering:geometricPrecision; text-rendering:geometricPrecision; image-rendering:optimizeQuality; fill-rule:evenodd; clip-rule:evenodd"
viewBox="0 0 215.9 279.4">
 <defs>
  <style type="text/css">
   <![CDATA[
    .str1 {stroke:#F8C300;stroke-width:0.0762}
    .str0 {stroke:#EA952F;stroke-width:1.4111}
    .fil0 {fill:none;fill-rule:nonzero}
    .fil1 {fill:#EA952F;fill-rule:nonzero}
   ]]>
  </style>
 </defs>
 <g id="Layer_x0020_1">
  <metadata id="CorelCorpID_0Corel-Layer"/>
  <path class="fil0 str0" d="M42.6078 233.565l127.402 0 0 -29.5983 29.5983 0 0 -136.411 -29.5983 0 0 -29.5983 -127.402 0 0 29.5983 -29.5983 0 0 136.411 29.5983 0 0 29.5983zm63.7012 0m63.7012 -14.7992m14.7991 -14.7991m14.7992 -68.2053m-14.7992 -68.2053m-14.7991 -14.7993m-63.7012 -14.799m-63.7012 14.799m-14.7993 14.7993m-14.799 68.2053m14.799 68.2053m14.7993 14.7991"/>
  <path class="fil1 str1" d="M73.1054 139.146l15.446 -32.8435 8.4289 0 -24.5254 47.9297 0.6505 -15.0862zm-6.0483 -32.8435l7.7091 0 0 58.9606 -7.7091 0 0 -58.9606zm11.9582 27.4596l5.2317 -6.0483 14.6017 37.5493 -8.761 0 -11.0724 -31.501zm43.8052 -0.7336l10.8649 0c1.3702,0 2.5604,-0.2629 3.5431,-0.775 0.9965,-0.5121 1.7439,-1.2595 2.256,-2.2284 0.5121,-0.9688 0.7613,-2.1452 0.7613,-3.5293l0 -5.9929c0,-1.4671 -0.2492,-2.7128 -0.7613,-3.7508 -0.5121,-1.0519 -1.2595,-1.8408 -2.256,-2.3806 -0.9827,-0.5398 -2.1729,-0.8027 -3.5431,-0.8027l-10.8649 0 0 -7.3078 10.1728 0c3.1418,0 5.8269,0.5259 8.069,1.564 2.2422,1.038 3.9584,2.5743 5.1349,4.5812 1.1764,2.0207 1.7577,4.4289 1.7577,7.2386l0 6.8925c0,2.8927 -0.5813,5.3702 -1.7577,7.4462 -1.1765,2.0623 -2.8927,3.6401 -5.1349,4.7196 -2.2421,1.0796 -4.9272,1.6194 -8.069,1.6194l-10.1728 0 0 -7.294zm-3.6123 -26.7675l7.7091 0 0 59.0021 -7.7091 0 0 -59.0021zm13.7436 32.2345l7.2663 -1.8546 9.3977 28.6222 -8.4289 0 -8.2351 -26.7676z"/>
 </g>
</svg>
