<?xml version="1.0" encoding="UTF-8"?>
<!DOCTYPE svg PUBLIC "-//W3C//DTD SVG 1.1//EN" "http://www.w3.org/Graphics/SVG/1.1/DTD/svg11.dtd">
<!-- Creator: CorelDRAW -->
<svg xmlns="http://www.w3.org/2000/svg" xml:space="preserve" width="215.9mm" height="279.4mm" style="shape-rendering:geometricPrecision; text-rendering:geometricPrecision; image-rendering:optimizeQuality; fill-rule:evenodd; clip-rule:evenodd"
viewBox="0 0 215.9 279.4">
 <defs>
  <style type="text/css">
   <![CDATA[
    .str1 {stroke:#D49B2E;stroke-width:0.0762}
    .str0 {stroke:#D49B2E;stroke-width:21.1667}
    .fil0 {fill:none;fill-rule:nonzero}
    .fil1 {fill:#D49B2E;fill-rule:nonzero}
   ]]>
  </style>
 </defs>
 <g id="Layer_x0020_1">
  <metadata id="CorelCorpID_0Corel-Layer"/>
  <path class="fil0 str0" d="M42.1801 234.222l128.258 0 0 -29.7968 29.7968 0 0 -137.326 -29.7968 0 0 -29.7968 -128.258 0 0 29.7968 -29.7968 0 0 137.326 29.7968 0 0 29.7968zm64.129 0m64.1288 -14.8983m14.8985 -14.8985m14.8983 -68.6631m-14.8983 -68.6632m-14.8985 -14.8985m-64.1288 -14.8983m-64.129 14.8983m-14.8985 14.8985m-14.8983 68.6632m14.8983 68.6631m14.8985 14.8985"/>
  <path class="fil1 str1" d="M64.814 139.991l19.3031 -41.045 10.5337 0 -30.6497 59.8984 0.8129 -18.8534zm-7.5586 -41.045l9.6341 0 0 73.6839 -9.6341 0 0 -73.6839zm14.9443 34.3166l6.5381 -7.5586 18.248 46.9259 -10.9488 0 -13.8373 -39.3673zm54.7439 -0.9167l13.578 0c1.7124,0 3.1998,-0.3286 4.4279,-0.9686 1.2453,-0.6399 2.1794,-1.574 2.8194,-2.7848 0.6399,-1.2108 0.9514,-2.6809 0.9514,-4.4106l0 -7.4894c0,-1.8335 -0.3115,-3.3903 -0.9514,-4.6875 -0.64,-1.3145 -1.5741,-2.3004 -2.8194,-2.975 -1.2281,-0.6746 -2.7155,-1.0032 -4.4279,-1.0032l-13.578 0 0 -9.1326 12.7131 0c3.9264,0 7.282,0.6572 10.084,1.9545 2.8021,1.2972 4.9468,3.2171 6.4171,5.7252 1.4702,2.5253 2.1966,5.5349 2.1966,9.0462l0 8.6136c0,3.6151 -0.7264,6.7112 -2.1966,9.3056 -1.4703,2.5773 -3.615,4.5491 -6.4171,5.8982 -2.802,1.3492 -6.1576,2.0238 -10.084,2.0238l-12.7131 0 0 -9.1154zm-4.5143 -33.4517l9.6342 0 0 73.7357 -9.6342 0 0 -73.7357zm17.1756 40.2838l9.0807 -2.3177 11.7445 35.7696 -10.5337 0 -10.2915 -33.4519z"/>
 </g>
</svg>
